<svg width="24" height="24" viewBox="0 0 24 24" fill="none" xmlns="http://www.w3.org/2000/svg">
<mask id="mask0_667_9472" style="mask-type:alpha" maskUnits="userSpaceOnUse" x="0" y="0" width="24" height="24">
<path d="M0 1.32414C0 0.860647 2.95968e-08 0.628899 0.090202 0.451869C0.169544 0.29615 0.296148 0.169543 0.45187 0.0902003C0.628901 0 0.860645 0 1.32414 0H21.8483C22.3118 0 22.5435 0 22.7206 0.0902003C22.8763 0.169543 23.0029 0.29615 23.0822 0.451869C23.1724 0.628899 23.1724 0.860647 23.1724 1.32414V14.731C23.1724 15.658 23.1724 16.1215 22.992 16.4756C22.8333 16.787 22.5801 17.0402 22.2687 17.1989C21.9146 17.3793 21.4511 17.3793 20.5241 17.3793H5.81826C5.58121 17.3793 5.4627 17.3793 5.35349 17.4098C5.2568 17.4368 5.1658 17.4812 5.08496 17.5408C4.99369 17.6081 4.92073 17.7015 4.77481 17.8882L0 24V1.32414Z" fill="#111ECF" style="fill:#111ECF;fill:color(display-p3 0.0667 0.1176 0.8118);fill-opacity:1;"/>
</mask>
<g mask="url(#mask0_667_9472)">
<path d="M0 2.64828C0 1.72129 -1.97312e-08 1.2578 0.180402 0.903738C0.33909 0.592297 0.592299 0.339089 0.903739 0.180401C1.2578 0 1.72129 0 2.64827 0H20.5241C21.4511 0 21.9146 0 22.2687 0.180401C22.5801 0.339089 22.8333 0.592297 22.992 0.903738C23.1724 1.2578 23.1724 1.72129 23.1724 2.64828V14.731C23.1724 15.658 23.1724 16.1215 22.992 16.4756C22.8333 16.787 22.5801 17.0402 22.2687 17.1989C21.9146 17.3793 21.4511 17.3793 20.5241 17.3793H5.81826C5.58121 17.3793 5.4627 17.3793 5.35349 17.4098C5.2568 17.4368 5.1658 17.4812 5.08496 17.5408C4.99369 17.6081 4.92073 17.7015 4.77481 17.8882L0 24V2.64828Z" fill="#000CBB" style="fill:#000CBB;fill:color(display-p3 0.0000 0.0490 0.7348);fill-opacity:1;"/>
<path d="M23.1717 4.96094H6.31381C5.82686 4.96094 5.58341 4.96094 5.39946 5.06021C5.25735 5.13688 5.14079 5.25344 5.06409 5.39555C4.96484 5.57951 4.96484 5.82298 4.96484 6.3099V18.2023H23.1717V4.96094Z" fill="#2736FF" style="fill:#2736FF;fill:color(display-p3 0.1546 0.2110 1.0000);fill-opacity:1;"/>
<path d="M23.1711 9.92969H11.2787C10.7917 9.92969 10.5483 9.92969 10.3643 10.029C10.2222 10.1056 10.1056 10.2222 10.0289 10.3643C9.92969 10.5483 9.92969 10.7917 9.92969 11.2787V17.378H23.1711V9.92969Z" fill="#4589FF" style="fill:#4589FF;fill:color(display-p3 0.2710 0.5383 1.0000);fill-opacity:1;"/>
</g>
</svg>
