<svg width="33" height="33" viewBox="0 0 33 33" fill="none" xmlns="http://www.w3.org/2000/svg">
<path d="M16.5839 32.8318C25.6501 32.8318 32.9998 25.4821 32.9998 16.4159C32.9998 7.34971 25.6501 -1.52588e-05 16.5839 -1.52588e-05C7.51769 -1.52588e-05 0.167969 7.34971 0.167969 16.4159C0.167969 25.4821 7.51769 32.8318 16.5839 32.8318Z" fill="#2CA01C"/>
<path d="M7.24093 16.4156C7.24093 17.8063 7.78537 19.1401 8.75449 20.1235C9.7236 21.1069 11.038 21.6593 12.4085 21.6593H13.1467V19.7116H12.4085C11.9798 19.715 11.5546 19.6324 11.1575 19.4683C10.7604 19.3042 10.3993 19.062 10.0949 18.7556C9.79048 18.4491 9.54888 18.0846 9.38401 17.683C9.21914 17.2814 9.13426 16.8506 9.13426 16.4155C9.13426 15.9804 9.21914 15.5497 9.38401 15.1481C9.54888 14.7464 9.79048 14.3819 10.0949 14.0755C10.3993 13.7691 10.7604 13.5269 11.1575 13.3628C11.5546 13.1987 11.9798 13.116 12.4085 13.1195H14.1802V23.3073C14.1804 23.8238 14.3826 24.3191 14.7425 24.6843C15.1024 25.0496 15.5905 25.2549 16.0995 25.2551V11.1719H12.4085C11.7299 11.1719 11.0579 11.3075 10.4309 11.571C9.80393 11.8345 9.23423 12.2208 8.75435 12.7077C8.27448 13.1946 7.89381 13.7727 7.6341 14.4089C7.37439 15.0451 7.24072 15.727 7.24072 16.4156H7.24093ZM21.2671 11.1719H20.529V13.1197H21.2671C22.1222 13.1295 22.939 13.4811 23.5403 14.0981C24.1415 14.7152 24.4787 15.5479 24.4787 16.4156C24.4787 17.2834 24.1415 18.1161 23.5403 18.7331C22.939 19.3502 22.1222 19.7018 21.2671 19.7116H19.4955V9.52416C19.4955 9.26838 19.4459 9.01511 19.3494 8.77879C19.253 8.54248 19.1116 8.32776 18.9334 8.14689C18.7551 7.96602 18.5436 7.82254 18.3107 7.72465C18.0778 7.62677 17.8282 7.57639 17.5762 7.57639V21.6595H21.2671C22.6377 21.6595 23.9521 21.1071 24.9212 20.1237C25.8903 19.1403 26.4347 17.8066 26.4347 16.4158C26.4347 15.0251 25.8903 13.6914 24.9212 12.708C23.9521 11.7246 22.6377 11.1721 21.2671 11.1721V11.1719Z" fill="white"/>
</svg>
