<svg width="54" height="61" viewBox="0 0 54 61" fill="none" xmlns="http://www.w3.org/2000/svg">
<path d="M14.4637 21.9656L14.4633 21.9655C14.0343 21.8953 13.6308 22.1846 13.5607 22.6127L13.5607 22.613C13.3179 24.0832 13.2269 25.6177 13.2881 27.1731L14.4637 21.9656ZM14.4637 21.9656C14.8893 22.0345 15.1795 22.4372 15.1109 22.8654C14.1437 27.8971 15.4456 33.2747 18.128 37.3203C20.7898 41.3349 24.836 44.0705 29.4093 43.8109L29.4103 43.812L29.5138 43.8057C36.4326 43.3867 40.8275 37.8392 42.2337 31.3295C43.6394 24.8219 42.081 17.2722 37.0151 12.7539C33.4058 9.36751 29.003 8.59148 25.0846 9.85553C21.1713 11.1179 17.7582 14.4086 16.0955 19.123C15.9973 19.3727 15.837 19.5128 15.6643 19.5791C15.4864 19.6475 15.2802 19.6429 15.0914 19.5731C14.9025 19.5033 14.7432 19.3728 14.6529 19.2051C14.5651 19.0421 14.5348 18.8301 14.6244 18.5739C15.7174 15.6267 17.3874 13.1687 19.4276 11.3357L19.1841 10.9897C14.7304 13.3939 11.6065 18.0501 10.8971 23.4835L10.897 23.4835L10.8967 23.487C10.5319 26.684 10.6815 30.7903 12.1686 34.5449C13.6586 38.3066 16.4912 41.7124 21.4758 43.4845L21.6634 43.1051M14.4637 21.9656L21.6634 43.1051M21.6634 43.1051C20.5877 42.4055 19.5752 41.5758 18.6642 40.6047C15.5594 37.2953 13.5081 32.5336 13.2881 27.1735L21.6634 43.1051ZM44.3243 25.9066L44.3374 26.4146L44.3407 26.4112C44.5346 36.579 37.9941 44.9787 29.6445 45.3678L29.6322 45.3684L29.6201 45.3703C23.8719 46.3108 19.3043 44.9528 15.9539 42.2889C12.5992 39.6215 10.4481 35.631 9.56658 31.2822C7.801 22.5718 11.1382 12.5204 19.9455 8.87971C24.1325 7.15267 27.5789 7.61943 28.1402 7.71213L28.16 7.71539L28.18 7.71492C32.8294 7.60498 36.8015 9.8392 39.6472 13.2636C42.4946 16.6899 44.2055 21.2992 44.3243 25.9066Z" fill="#504F4E" stroke="#504F4E" stroke-width="0.42609"/>
<path d="M22.6938 44.0869V56.4343L21.4155 59" stroke="#504F4E" stroke-width="2.13045" stroke-linecap="round" stroke-linejoin="round"/>
<path d="M30.3634 44.939V56.8094L32.9199 58.5739" stroke="#504F4E" stroke-width="2.13045" stroke-linecap="round" stroke-linejoin="round"/>
<path d="M14.2743 22.7823C10.8062 22.3512 3.8943 24.5994 4.39874 36.8433" stroke="#504F4E" stroke-width="2.13045" stroke-linecap="round" stroke-linejoin="round"/>
<path d="M48.2327 36.8433C48.5057 30.2165 46.2101 26.191 43.8873 24.2736" stroke="#504F4E" stroke-width="2.13045" stroke-linecap="round" stroke-linejoin="round"/>
<path d="M25.7787 24.2871C25.7787 25.3929 25.0691 26.2045 24.2874 26.2045C23.5056 26.2045 22.7961 25.3929 22.7961 24.2871C22.7961 23.1814 23.5056 22.3697 24.2874 22.3697C25.0691 22.3697 25.7787 23.1814 25.7787 24.2871Z" fill="#504F4E" stroke="#504F4E" stroke-width="0.42609"/>
<path d="M35.5785 24.2871C35.5785 25.3929 34.8689 26.2045 34.0872 26.2045C33.3054 26.2045 32.5959 25.3929 32.5959 24.2871C32.5959 23.1814 33.3054 22.3697 34.0872 22.3697C34.8689 22.3697 35.5785 23.1814 35.5785 24.2871Z" fill="#504F4E" stroke="#504F4E" stroke-width="0.42609"/>
<path d="M25.1392 31.5046C25.7323 33.3279 27.6474 34.9453 30.2406 34.1017" stroke="#504F4E" stroke-width="1.70436" stroke-linecap="round"/>
<path d="M46.4163 9.05048C46.4297 8.91367 46.5787 8.91367 46.5917 9.05048C46.6935 10.1156 47.3225 10.9537 48.121 11.0896C48.2239 11.1073 48.2239 11.3061 48.121 11.3233C47.3225 11.4592 46.6936 12.2978 46.5917 13.3624C46.5787 13.4997 46.4297 13.4997 46.4163 13.3624C46.3145 12.2978 45.6859 11.4592 44.887 11.3233C44.7844 11.3061 44.7844 11.1073 44.887 11.0896C45.6859 10.9537 46.3144 10.1156 46.4163 9.05048Z" fill="#7C80FE"/>
<path d="M50.09 11.7045C50.1137 11.4573 50.3823 11.4573 50.4057 11.7045C50.6199 13.9413 51.9411 15.703 53.6187 15.988C53.8041 16.0197 53.8041 16.3778 53.6187 16.409C51.9411 16.6946 50.6199 18.4562 50.4057 20.693C50.3823 20.9402 50.1137 20.9402 50.09 20.693C49.8761 18.4562 48.5549 16.6946 46.8773 16.409C46.6919 16.3778 46.6919 16.0197 46.8773 15.988C48.5549 15.7029 49.8762 13.9413 50.09 11.7045Z" fill="#7C80FE"/>
</svg>
